<svg width="222" height="64" viewBox="0 0 222 64" fill="none" xmlns="http://www.w3.org/2000/svg">
<path d="M25.9204 51.8408C40.2358 51.8408 51.8408 40.2358 51.8408 25.9204C51.8408 11.605 40.2358 0 25.9204 0C11.605 0 0 11.605 0 25.9204C0 40.2358 11.605 51.8408 25.9204 51.8408Z" fill="url(#paint0_linear_1399_1752)"/>
<path d="M44.6079 63.8965C58.9233 63.8965 70.5283 52.2915 70.5283 37.9761C70.5283 23.6606 58.9233 12.0557 44.6079 12.0557C30.2925 12.0557 18.6875 23.6606 18.6875 37.9761C18.6875 52.2915 30.2925 63.8965 44.6079 63.8965Z" fill="url(#paint1_linear_1399_1752)"/>
<path d="M101.273 30.2188C101.134 29.7348 100.938 29.3073 100.686 28.9361C100.434 28.5582 100.126 28.2401 99.7614 27.9815C99.4034 27.7164 98.9924 27.5142 98.5284 27.375C98.071 27.2358 97.5639 27.1662 97.0071 27.1662C95.9664 27.1662 95.0516 27.4247 94.2628 27.9418C93.4806 28.4588 92.8707 29.2112 92.4332 30.1989C91.9957 31.1799 91.777 32.3797 91.777 33.7983C91.777 35.2169 91.9924 36.4233 92.4233 37.4176C92.8542 38.4119 93.464 39.1709 94.2528 39.6946C95.0417 40.2116 95.973 40.4702 97.0469 40.4702C98.0213 40.4702 98.8532 40.2978 99.5426 39.9531C100.239 39.6018 100.769 39.108 101.134 38.4716C101.505 37.8352 101.69 37.0829 101.69 36.2145L102.565 36.3438H97.3153V33.1023H105.837V35.6676C105.837 37.4574 105.459 38.9953 104.703 40.2812C103.947 41.5606 102.907 42.5483 101.581 43.2443C100.255 43.9337 98.7372 44.2784 97.027 44.2784C95.1179 44.2784 93.4408 43.8575 91.9957 43.0156C90.5507 42.1671 89.4238 40.964 88.6151 39.4062C87.813 37.8419 87.4119 35.9858 87.4119 33.8381C87.4119 32.1875 87.6506 30.7159 88.1278 29.4233C88.6117 28.1241 89.2879 27.0237 90.1562 26.1222C91.0246 25.2206 92.0355 24.5346 93.1889 24.0639C94.3423 23.5933 95.5919 23.358 96.9375 23.358C98.0909 23.358 99.1648 23.527 100.159 23.8651C101.153 24.1965 102.035 24.6671 102.804 25.277C103.58 25.8868 104.213 26.6127 104.703 27.4545C105.194 28.2898 105.509 29.2112 105.648 30.2188H101.273ZM108.991 44V28.7273H113.098V31.392H113.257C113.535 30.4441 114.002 29.7282 114.659 29.2443C115.315 28.7538 116.071 28.5085 116.926 28.5085C117.138 28.5085 117.367 28.5218 117.612 28.5483C117.857 28.5748 118.073 28.6113 118.258 28.6577V32.4162C118.059 32.3565 117.784 32.3035 117.433 32.2571C117.082 32.2107 116.76 32.1875 116.468 32.1875C115.845 32.1875 115.288 32.3234 114.798 32.5952C114.314 32.8603 113.93 33.2315 113.645 33.7088C113.366 34.1861 113.227 34.7363 113.227 35.3594V44H108.991ZM124.366 44.2884C123.391 44.2884 122.523 44.1193 121.761 43.7812C120.998 43.4366 120.395 42.9295 119.951 42.2599C119.513 41.5838 119.295 40.742 119.295 39.7344C119.295 38.8859 119.451 38.1733 119.762 37.5966C120.074 37.0199 120.498 36.5559 121.035 36.2045C121.572 35.8532 122.182 35.5881 122.864 35.4091C123.554 35.2301 124.276 35.1042 125.032 35.0312C125.92 34.9384 126.636 34.8523 127.18 34.7727C127.723 34.6866 128.118 34.5606 128.363 34.3949C128.608 34.2292 128.731 33.9839 128.731 33.6591V33.5994C128.731 32.9697 128.532 32.4825 128.134 32.1378C127.743 31.7931 127.186 31.6207 126.464 31.6207C125.701 31.6207 125.095 31.7898 124.644 32.1278C124.193 32.4593 123.895 32.8769 123.749 33.3807L119.832 33.0625C120.031 32.1345 120.422 31.3324 121.005 30.6562C121.588 29.9735 122.341 29.4498 123.262 29.0852C124.19 28.714 125.264 28.5284 126.484 28.5284C127.332 28.5284 128.144 28.6278 128.92 28.8267C129.702 29.0256 130.395 29.3338 130.998 29.7514C131.608 30.169 132.088 30.706 132.44 31.3622C132.791 32.0118 132.967 32.7907 132.967 33.6989V44H128.95V41.8821H128.83C128.585 42.3594 128.257 42.7803 127.846 43.1449C127.435 43.5028 126.941 43.7846 126.364 43.9901C125.788 44.1889 125.121 44.2884 124.366 44.2884ZM125.579 41.3651C126.202 41.3651 126.752 41.2424 127.229 40.9972C127.707 40.7453 128.081 40.4072 128.353 39.983C128.625 39.5587 128.761 39.0781 128.761 38.5412V36.9205C128.628 37.0066 128.446 37.0862 128.214 37.1591C127.988 37.2254 127.733 37.2884 127.448 37.348C127.163 37.401 126.878 37.4508 126.593 37.4972C126.308 37.5369 126.049 37.5734 125.817 37.6065C125.32 37.6795 124.886 37.7955 124.515 37.9545C124.144 38.1136 123.855 38.3291 123.65 38.6009C123.444 38.866 123.342 39.1974 123.342 39.5952C123.342 40.1719 123.55 40.6127 123.968 40.9176C124.392 41.2159 124.929 41.3651 125.579 41.3651ZM140.489 35.1705V44H136.253V28.7273H140.29V31.4219H140.469C140.807 30.5336 141.374 29.831 142.169 29.3139C142.964 28.7902 143.929 28.5284 145.062 28.5284C146.123 28.5284 147.048 28.7604 147.837 29.2244C148.625 29.6884 149.239 30.3513 149.676 31.2131C150.114 32.0682 150.332 33.089 150.332 34.2756V44H146.097V35.0312C146.103 34.0966 145.865 33.3674 145.381 32.8438C144.897 32.3134 144.231 32.0483 143.382 32.0483C142.812 32.0483 142.308 32.1709 141.871 32.4162C141.44 32.6615 141.102 33.0194 140.857 33.4901C140.618 33.9541 140.495 34.5142 140.489 35.1705ZM161.794 28.7273V31.9091H152.597V28.7273H161.794ZM154.685 25.0682H158.921V39.3068C158.921 39.6979 158.98 40.0028 159.1 40.2216C159.219 40.4337 159.385 40.5829 159.597 40.669C159.816 40.7552 160.068 40.7983 160.353 40.7983C160.551 40.7983 160.75 40.7817 160.949 40.7486C161.148 40.7088 161.301 40.679 161.407 40.6591L162.073 43.8111C161.861 43.8774 161.562 43.9536 161.178 44.0398C160.793 44.1326 160.326 44.1889 159.776 44.2088C158.755 44.2486 157.86 44.1127 157.091 43.8011C156.329 43.4896 155.736 43.0057 155.311 42.3494C154.887 41.6932 154.678 40.8646 154.685 39.8636V25.0682ZM168.909 44.2884C167.934 44.2884 167.066 44.1193 166.304 43.7812C165.541 43.4366 164.938 42.9295 164.494 42.2599C164.056 41.5838 163.838 40.742 163.838 39.7344C163.838 38.8859 163.993 38.1733 164.305 37.5966C164.617 37.0199 165.041 36.5559 165.578 36.2045C166.115 35.8532 166.725 35.5881 167.407 35.4091C168.097 35.2301 168.819 35.1042 169.575 35.0312C170.463 34.9384 171.179 34.8523 171.723 34.7727C172.266 34.6866 172.661 34.5606 172.906 34.3949C173.151 34.2292 173.274 33.9839 173.274 33.6591V33.5994C173.274 32.9697 173.075 32.4825 172.677 32.1378C172.286 31.7931 171.729 31.6207 171.007 31.6207C170.244 31.6207 169.638 31.7898 169.187 32.1278C168.736 32.4593 168.438 32.8769 168.292 33.3807L164.375 33.0625C164.574 32.1345 164.965 31.3324 165.548 30.6562C166.131 29.9735 166.884 29.4498 167.805 29.0852C168.733 28.714 169.807 28.5284 171.027 28.5284C171.875 28.5284 172.687 28.6278 173.463 28.8267C174.245 29.0256 174.938 29.3338 175.541 29.7514C176.151 30.169 176.631 30.706 176.983 31.3622C177.334 32.0118 177.51 32.7907 177.51 33.6989V44H173.493V41.8821H173.373C173.128 42.3594 172.8 42.7803 172.389 43.1449C171.978 43.5028 171.484 43.7846 170.907 43.9901C170.331 44.1889 169.664 44.2884 168.909 44.2884ZM170.122 41.3651C170.745 41.3651 171.295 41.2424 171.772 40.9972C172.25 40.7453 172.624 40.4072 172.896 39.983C173.168 39.5587 173.304 39.0781 173.304 38.5412V36.9205C173.171 37.0066 172.989 37.0862 172.757 37.1591C172.531 37.2254 172.276 37.2884 171.991 37.348C171.706 37.401 171.421 37.4508 171.136 37.4972C170.851 37.5369 170.592 37.5734 170.36 37.6065C169.863 37.6795 169.429 37.7955 169.058 37.9545C168.687 38.1136 168.398 38.3291 168.193 38.6009C167.987 38.866 167.885 39.1974 167.885 39.5952C167.885 40.1719 168.093 40.6127 168.511 40.9176C168.935 41.2159 169.472 41.3651 170.122 41.3651ZM185.032 23.6364V44H180.796V23.6364H185.032ZM191.04 49.7273C190.503 49.7273 189.999 49.6842 189.528 49.598C189.064 49.5185 188.68 49.4157 188.375 49.2898L189.33 46.1278C189.827 46.2803 190.274 46.3632 190.672 46.3764C191.076 46.3897 191.424 46.2969 191.716 46.098C192.014 45.8991 192.256 45.5611 192.442 45.0838L192.69 44.4375L187.212 28.7273H191.666L194.828 39.9432H194.987L198.179 28.7273H202.663L196.727 45.6506C196.442 46.4725 196.054 47.1884 195.564 47.7983C195.08 48.4148 194.467 48.8887 193.724 49.2202C192.982 49.5582 192.087 49.7273 191.04 49.7273Z" fill="black" fill-opacity="0.75"/>
<defs>
<linearGradient id="paint0_linear_1399_1752" x1="51.8407" y1="-15.6728" x2="-28.3315" y2="25.9203" gradientUnits="userSpaceOnUse">
<stop stop-color="#0075FF"/>
<stop offset="0.875" stop-color="#0075FF" stop-opacity="0"/>
</linearGradient>
<linearGradient id="paint1_linear_1399_1752" x1="70.5283" y1="-3.61706" x2="-9.64395" y2="37.9761" gradientUnits="userSpaceOnUse">
<stop stop-color="#0075FF"/>
<stop offset="0.786458" stop-color="#0075FF" stop-opacity="0"/>
</linearGradient>
</defs>
</svg>
