<svg width="222" height="64" viewBox="0 0 222 64" fill="none" xmlns="http://www.w3.org/2000/svg">
<path d="M25.9204 51.8408C40.2358 51.8408 51.8408 40.2358 51.8408 25.9204C51.8408 11.605 40.2358 0 25.9204 0C11.605 0 0 11.605 0 25.9204C0 40.2358 11.605 51.8408 25.9204 51.8408Z" fill="url(#paint0_linear_1399_1734)"/>
<path d="M44.6079 63.8965C58.9233 63.8965 70.5283 52.2915 70.5283 37.9761C70.5283 23.6606 58.9233 12.0557 44.6079 12.0557C30.2925 12.0557 18.6875 23.6606 18.6875 37.9761C18.6875 52.2915 30.2925 63.8965 44.6079 63.8965Z" fill="url(#paint1_linear_1399_1734)"/>
<path d="M103.273 30.2188C103.134 29.7348 102.938 29.3073 102.686 28.9361C102.434 28.5582 102.126 28.2401 101.761 27.9815C101.403 27.7164 100.992 27.5142 100.528 27.375C100.071 27.2358 99.5639 27.1662 99.0071 27.1662C97.9664 27.1662 97.0516 27.4247 96.2628 27.9418C95.4806 28.4588 94.8707 29.2112 94.4332 30.1989C93.9957 31.1799 93.777 32.3797 93.777 33.7983C93.777 35.2169 93.9924 36.4233 94.4233 37.4176C94.8542 38.4119 95.464 39.1709 96.2528 39.6946C97.0417 40.2116 97.973 40.4702 99.0469 40.4702C100.021 40.4702 100.853 40.2978 101.543 39.9531C102.239 39.6018 102.769 39.108 103.134 38.4716C103.505 37.8352 103.69 37.0829 103.69 36.2145L104.565 36.3438H99.3153V33.1023H107.837V35.6676C107.837 37.4574 107.459 38.9953 106.703 40.2812C105.947 41.5606 104.907 42.5483 103.581 43.2443C102.255 43.9337 100.737 44.2784 99.027 44.2784C97.1179 44.2784 95.4408 43.8575 93.9957 43.0156C92.5507 42.1671 91.4238 40.964 90.6151 39.4062C89.813 37.8419 89.4119 35.9858 89.4119 33.8381C89.4119 32.1875 89.6506 30.7159 90.1278 29.4233C90.6117 28.1241 91.2879 27.0237 92.1562 26.1222C93.0246 25.2206 94.0355 24.5346 95.1889 24.0639C96.3423 23.5933 97.5919 23.358 98.9375 23.358C100.091 23.358 101.165 23.527 102.159 23.8651C103.153 24.1965 104.035 24.6671 104.804 25.277C105.58 25.8868 106.213 26.6127 106.703 27.4545C107.194 28.2898 107.509 29.2112 107.648 30.2188H103.273ZM110.991 44V28.7273H115.098V31.392H115.257C115.535 30.4441 116.002 29.7282 116.659 29.2443C117.315 28.7538 118.071 28.5085 118.926 28.5085C119.138 28.5085 119.367 28.5218 119.612 28.5483C119.857 28.5748 120.073 28.6113 120.258 28.6577V32.4162C120.059 32.3565 119.784 32.3035 119.433 32.2571C119.082 32.2107 118.76 32.1875 118.468 32.1875C117.845 32.1875 117.288 32.3234 116.798 32.5952C116.314 32.8603 115.93 33.2315 115.645 33.7088C115.366 34.1861 115.227 34.7363 115.227 35.3594V44H110.991ZM126.366 44.2884C125.391 44.2884 124.523 44.1193 123.761 43.7812C122.998 43.4366 122.395 42.9295 121.951 42.2599C121.513 41.5838 121.295 40.742 121.295 39.7344C121.295 38.8859 121.451 38.1733 121.762 37.5966C122.074 37.0199 122.498 36.5559 123.035 36.2045C123.572 35.8532 124.182 35.5881 124.864 35.4091C125.554 35.2301 126.276 35.1042 127.032 35.0312C127.92 34.9384 128.636 34.8523 129.18 34.7727C129.723 34.6866 130.118 34.5606 130.363 34.3949C130.608 34.2292 130.731 33.9839 130.731 33.6591V33.5994C130.731 32.9697 130.532 32.4825 130.134 32.1378C129.743 31.7931 129.186 31.6207 128.464 31.6207C127.701 31.6207 127.095 31.7898 126.644 32.1278C126.193 32.4593 125.895 32.8769 125.749 33.3807L121.832 33.0625C122.031 32.1345 122.422 31.3324 123.005 30.6562C123.588 29.9735 124.341 29.4498 125.262 29.0852C126.19 28.714 127.264 28.5284 128.484 28.5284C129.332 28.5284 130.144 28.6278 130.92 28.8267C131.702 29.0256 132.395 29.3338 132.998 29.7514C133.608 30.169 134.088 30.706 134.44 31.3622C134.791 32.0118 134.967 32.7907 134.967 33.6989V44H130.95V41.8821H130.83C130.585 42.3594 130.257 42.7803 129.846 43.1449C129.435 43.5028 128.941 43.7846 128.364 43.9901C127.788 44.1889 127.121 44.2884 126.366 44.2884ZM127.579 41.3651C128.202 41.3651 128.752 41.2424 129.229 40.9972C129.707 40.7453 130.081 40.4072 130.353 39.983C130.625 39.5587 130.761 39.0781 130.761 38.5412V36.9205C130.628 37.0066 130.446 37.0862 130.214 37.1591C129.988 37.2254 129.733 37.2884 129.448 37.348C129.163 37.401 128.878 37.4508 128.593 37.4972C128.308 37.5369 128.049 37.5734 127.817 37.6065C127.32 37.6795 126.886 37.7955 126.515 37.9545C126.144 38.1136 125.855 38.3291 125.65 38.6009C125.444 38.866 125.342 39.1974 125.342 39.5952C125.342 40.1719 125.55 40.6127 125.968 40.9176C126.392 41.2159 126.929 41.3651 127.579 41.3651ZM142.489 35.1705V44H138.253V28.7273H142.29V31.4219H142.469C142.807 30.5336 143.374 29.831 144.169 29.3139C144.964 28.7902 145.929 28.5284 147.062 28.5284C148.123 28.5284 149.048 28.7604 149.837 29.2244C150.625 29.6884 151.239 30.3513 151.676 31.2131C152.114 32.0682 152.332 33.089 152.332 34.2756V44H148.097V35.0312C148.103 34.0966 147.865 33.3674 147.381 32.8438C146.897 32.3134 146.231 32.0483 145.382 32.0483C144.812 32.0483 144.308 32.1709 143.871 32.4162C143.44 32.6615 143.102 33.0194 142.857 33.4901C142.618 33.9541 142.495 34.5142 142.489 35.1705ZM163.794 28.7273V31.9091H154.597V28.7273H163.794ZM156.685 25.0682H160.921V39.3068C160.921 39.6979 160.98 40.0028 161.1 40.2216C161.219 40.4337 161.385 40.5829 161.597 40.669C161.816 40.7552 162.068 40.7983 162.353 40.7983C162.551 40.7983 162.75 40.7817 162.949 40.7486C163.148 40.7088 163.301 40.679 163.407 40.6591L164.073 43.8111C163.861 43.8774 163.562 43.9536 163.178 44.0398C162.793 44.1326 162.326 44.1889 161.776 44.2088C160.755 44.2486 159.86 44.1127 159.091 43.8011C158.329 43.4896 157.736 43.0057 157.311 42.3494C156.887 41.6932 156.678 40.8646 156.685 39.8636V25.0682ZM170.909 44.2884C169.934 44.2884 169.066 44.1193 168.304 43.7812C167.541 43.4366 166.938 42.9295 166.494 42.2599C166.056 41.5838 165.838 40.742 165.838 39.7344C165.838 38.8859 165.993 38.1733 166.305 37.5966C166.617 37.0199 167.041 36.5559 167.578 36.2045C168.115 35.8532 168.725 35.5881 169.407 35.4091C170.097 35.2301 170.819 35.1042 171.575 35.0312C172.463 34.9384 173.179 34.8523 173.723 34.7727C174.266 34.6866 174.661 34.5606 174.906 34.3949C175.151 34.2292 175.274 33.9839 175.274 33.6591V33.5994C175.274 32.9697 175.075 32.4825 174.677 32.1378C174.286 31.7931 173.729 31.6207 173.007 31.6207C172.244 31.6207 171.638 31.7898 171.187 32.1278C170.736 32.4593 170.438 32.8769 170.292 33.3807L166.375 33.0625C166.574 32.1345 166.965 31.3324 167.548 30.6562C168.131 29.9735 168.884 29.4498 169.805 29.0852C170.733 28.714 171.807 28.5284 173.027 28.5284C173.875 28.5284 174.687 28.6278 175.463 28.8267C176.245 29.0256 176.938 29.3338 177.541 29.7514C178.151 30.169 178.631 30.706 178.983 31.3622C179.334 32.0118 179.51 32.7907 179.51 33.6989V44H175.493V41.8821H175.373C175.128 42.3594 174.8 42.7803 174.389 43.1449C173.978 43.5028 173.484 43.7846 172.907 43.9901C172.331 44.1889 171.664 44.2884 170.909 44.2884ZM172.122 41.3651C172.745 41.3651 173.295 41.2424 173.772 40.9972C174.25 40.7453 174.624 40.4072 174.896 39.983C175.168 39.5587 175.304 39.0781 175.304 38.5412V36.9205C175.171 37.0066 174.989 37.0862 174.757 37.1591C174.531 37.2254 174.276 37.2884 173.991 37.348C173.706 37.401 173.421 37.4508 173.136 37.4972C172.851 37.5369 172.592 37.5734 172.36 37.6065C171.863 37.6795 171.429 37.7955 171.058 37.9545C170.687 38.1136 170.398 38.3291 170.193 38.6009C169.987 38.866 169.885 39.1974 169.885 39.5952C169.885 40.1719 170.093 40.6127 170.511 40.9176C170.935 41.2159 171.472 41.3651 172.122 41.3651ZM187.032 23.6364V44H182.796V23.6364H187.032ZM193.04 49.7273C192.503 49.7273 191.999 49.6842 191.528 49.598C191.064 49.5185 190.68 49.4157 190.375 49.2898L191.33 46.1278C191.827 46.2803 192.274 46.3632 192.672 46.3764C193.076 46.3897 193.424 46.2969 193.716 46.098C194.014 45.8991 194.256 45.5611 194.442 45.0838L194.69 44.4375L189.212 28.7273H193.666L196.828 39.9432H196.987L200.179 28.7273H204.663L198.727 45.6506C198.442 46.4725 198.054 47.1884 197.564 47.7983C197.08 48.4148 196.467 48.8887 195.724 49.2202C194.982 49.5582 194.087 49.7273 193.04 49.7273Z" fill="white"/>
<defs>
<linearGradient id="paint0_linear_1399_1734" x1="51.8407" y1="-15.6728" x2="-28.3315" y2="25.9203" gradientUnits="userSpaceOnUse">
<stop stop-color="#0075FF"/>
<stop offset="0.875" stop-color="#0075FF" stop-opacity="0"/>
</linearGradient>
<linearGradient id="paint1_linear_1399_1734" x1="70.5283" y1="-3.61706" x2="-9.64395" y2="37.9761" gradientUnits="userSpaceOnUse">
<stop stop-color="#0075FF"/>
<stop offset="0.786458" stop-color="#0075FF" stop-opacity="0"/>
</linearGradient>
</defs>
</svg>
