<svg xmlns="http://www.w3.org/2000/svg" width="24" height="24" viewBox="0 0 24 24" fill="none">
  <path fill="#4285F4" d="M12 0C7.6 0 4.1 2.1 3.1 5.2L0 4.9V9h2.3C2.8 7.3 4.4 6 6.5 6c1.5 0 2.8.6 3.7 1.6l2.8-2.1C12.6 4.2 10.6 3 8.5 3 5.5 3 3 5.4 3 8.5S5.5 14 8.5 14c1.5 0 2.8-.6 3.7-1.6l2.8 2.1C12.6 15.8 10.6 17 8.5 17c-3 0-5.5-2.4-5.5-5.5s2.4-5.5 5.5-5.5c1.6 0 3 1.2 3 2.7V9h2.3C20.2 7.3 18.6 6 16.5 6c-1.5 0-2.8.6-3.7 1.6L10 5.5C11.4 4.3 13.4 3 15.5 3c3 0 5.5 2.4 5.5 5.5S18.5 14 15.5 14C14 14 12.6 13.4 12 12z"/>
</svg>
